<svg xmlns="http://www.w3.org/2000/svg" viewBox="0 0 100 100" role="img" aria-label="GitHub">
<title>GitHub</title>
<style>
@keyframes gh-tailwag {0%,100%{transform:rotate(0deg)} 50%{transform:rotate(20deg)}}
.gh-body{fill:#fff}
.gh-tail{fill:#fff;transform-box:fill-box;transform-origin:top left;animation:gh-tailwag 1s ease-in-out infinite}
</style>
<path class="gh-body" d="M50 16c-18 0-32 14-32 32 0 14 9 26 22 30v-11c-6 1-8-3-9-5l-4-7c-2-3-1-4 1-4 3 0 5 3 6 4 3 4 6 3 8 2 1-4 3-6 5-7-12-1-19-6-19-18 0-5 2-9 5-12-1-3 0-7 1-9 3-1 8 1 12 4 4-1 8-2 12-2s8 1 12 2c4-3 9-5 12-4 1 2 2 6 1 9 3 3 5 7 5 12 0 12-7 17-19 18 3 2 5 6 5 11v14c13-4 22-16 22-30 0-18-14-32-32-32z"/>
<path class="gh-tail" d="M22 78c-3-1-5-4-4-4 3 1 4 3 4 4z"/>
</svg>
